<svg width="40" height="40" viewBox="0 0 40 40" fill="none" xmlns="http://www.w3.org/2000/svg">
<path fill-rule="evenodd" clip-rule="evenodd" d="M20 40C31.0457 40 40 31.0457 40 20C40 8.9543 31.0457 0 20 0C8.95431 0 0 8.9543 0 20C0 31.0457 8.95431 40 20 40ZM14.5018 12.1118C14.2705 12.1991 14.0604 12.3347 13.8854 12.5094L12.8514 13.5434C12.1114 14.2835 11.7865 15.3905 12.1484 16.4206C13.077 19.0592 14.5877 21.4548 16.5683 23.4299C18.5435 25.4108 20.9394 26.9216 23.5781 27.8501C24.6091 28.2131 25.715 27.8881 26.455 27.1481L27.489 26.114C28.2309 25.373 28.1549 24.1479 27.326 23.5029L25.02 21.7088C24.8112 21.5465 24.5682 21.4338 24.3093 21.3792C24.0505 21.3247 23.7827 21.3296 23.5261 21.3938L21.3372 21.9408C21.2236 21.9693 21.1046 21.9679 20.9917 21.9367C20.8789 21.9055 20.776 21.8456 20.6932 21.7628L18.2363 19.3057C18.1537 19.223 18.0939 19.1203 18.0627 19.0076C18.0315 18.8949 18.03 18.7761 18.0583 18.6627L18.6052 16.4726C18.7352 15.9526 18.6192 15.4015 18.2903 14.9785L16.4953 12.6724C16.3434 12.4773 16.1518 12.3166 15.9332 12.2012C15.7146 12.0857 15.4739 12.018 15.2271 12.0026C14.9803 11.9872 14.7331 12.0244 14.5018 12.1118Z" fill="#283E78" fill-opacity="0.74"/>
</svg>
